<svg xmlns="http://www.w3.org/2000/svg" viewBox="0 0 120 120" fill="none" aria-hidden="true">
  <circle cx="60" cy="60" r="58" fill="#C4B8A5" stroke="#313131" stroke-width="2"/>
  <path fill="#313131" d="M52 22h16l2 8h-20l2-8z"/>
  <path fill="#313131" d="M60 30c-7 2-13 9-14 17l-1 11c-6 2-11 8-11 14v5h10l2 16h28l2-16h10v-5c0-6-5-12-11-14l-1-11c-1-8-7-15-14-17z"/>
  <path fill="#6b6560" d="M46 50h28v6c0 4-3 7-14 7s-14-3-14-7v-6z"/>
  <ellipse cx="60" cy="96" fill="#313131" rx="30" ry="8"/>
</svg>
